# xmcd
#
# Track frame offsets:
#	182
#	21410
#	36795
#	63545
#	92070
#
# Disc length: 1520 seconds
#
# Revision: 1
# Processed by: cddbd v1.5PL3 Copyright (c) Steve Scherf et al.
# Submitted via: EasyCDDAExtractor 6.5.0.1
#
DISCID=3d05ee05
DTITLE=Rozlyne Clarke - Eddy Steady Go
DYEAR=1900
DGENRE=
TTITLE0=Eddy Steady Go(Long Radio Mix)
TTITLE1=Eddy Steady Go(Short Radio Mix)
TTITLE2=Eddy Steady Go(Club Mix)
TTITLE3=Eddy Steady Go(Beat Box King's Obsession Mix)
TTITLE4=Eddy Steady Go(Beat Box King's New Age Mix)
EXTD=
EXTT0=
EXTT1=
EXTT2=
EXTT3=
EXTT4=
PLAYORDER=
